PathFileType	4	(X/Y/Z)	C:\Users\chris\Documents\GitHub\baseballds\vids\pitch5_Sports2D\pitch5_Sports2D_m_person04.trc
DataRate	CameraRate	NumFrames	NumMarkers	Units	OrigDataRate	OrigDataStartFrame	OrigNumFrames
30	30	8	22	m	30	130	149
Frame#	Time	Hip			RHip			RKnee			RAnkle			RBigToe			RSmallToe			RHeel			LHip			LKnee			LAnkle			LBigToe			LSmallToe			LHeel			Neck			Head			Nose			RShoulder			RElbow			RWrist			LShoulder			LElbow			LWrist		
		X1	Y1	Z1	X2	Y2	Z2	X3	Y3	Z3	X4	Y4	Z4	X5	Y5	Z5	X6	Y6	Z6	X7	Y7	Z7	X8	Y8	Z8	X9	Y9	Z9	X10	Y10	Z10	X11	Y11	Z11	X12	Y12	Z12	X13	Y13	Z13	X14	Y14	Z14	X15	Y15	Z15	X16	Y16	Z16	X17	Y17	Z17	X18	Y18	Z18	X19	Y19	Z19	X20	Y20	Z20	X21	Y21	Z21	X22	Y22	Z22
130	4.333333333333333	1.7611394128245992	1.0725264255802656	0.0	1.7275861734870732	1.0698054396897874	0.0	1.7601808797718381	0.9130214199056589	0.0	1.7422801139117041	0.7498302485734015	0.0	1.806293650887934	0.7085057190058371	0.0	1.7848608811000415	0.7029787925696214	0.0	1.7278866172489162	0.7230105973735539	0.0	1.790794423997561	1.0733083847700053	0.0	1.7774057412716817	0.9126211992114858	0.0	1.7564868729355148	0.7602562005897745	0.0	1.813414372809029	0.7169383937421093	0.0	1.8123540883899825	0.7276145801611457	0.0	1.7393395538453322	0.7342493927895309	0.0	1.750132344188932	1.3270562861534267	0.0	1.7625196055206194	1.4434091335579657	0.0	1.7958462548646175	1.3784456313891242	0.0	1.6874777479045031	1.2811193835221601	0.0	1.6708962239686798	1.1625164552731653	0.0	1.702357293483704	1.0588270367849544	0.0	1.8021105293385546	1.2796752082297076	0.0	1.809454903437671	1.1760141884015882	0.0	1.8295779210236989	1.1327849302798634	0.0
131	4.366666666666666	1.7636008854162986	1.0729041695238795	0.0	1.7315591949021176	1.0701464174354047	0.0	1.7647582274589508	0.9124065004991929	0.0	1.7634778588889721	0.7492407594147198	0.0	1.8304756126609532	0.7109113506568018	0.0	1.8108125806405755	0.7040595538151891	0.0	1.7501180427730172	0.7209022854819955	0.0	1.7922808946860938	1.0738665798887839	0.0	1.7761593721287883	0.9134424908480113	0.0	1.7558106654301808	0.7605137993102465	0.0	1.8154794797647824	0.7214289997080094	0.0	1.8149444528569703	0.7316872343468008	0.0	1.7344534237840963	0.7333657366324836	0.0	1.7531593990162284	1.3268776941094356	0.0	1.7670075748731815	1.444337149746197	0.0	1.7992096697983972	1.3791490929370027	0.0	1.691199410932968	1.2819783844464447	0.0	1.6733441801116327	1.1632496913558752	0.0	1.70045599266288	1.0582685463562775	0.0	1.8036530699092903	1.2807191909033908	0.0	1.809539746444852	1.17739506126145	0.0	1.8301547720487665	1.1279199407361062	0.0
132	4.4	1.7658225899771314	1.0717346086695445	0.0	1.7344759573993809	1.0692400449128032	0.0	1.7686728549926907	0.9120649747118008	0.0	1.785677450148161	0.7503599752946657	0.0	1.8543587360736669	0.7167174618014277	0.0	1.8352036038735846	0.7090700169178619	0.0	1.7744826541313365	0.7212668079931295	0.0	1.794265276546239	1.0732854891250563	0.0	1.7749177805647982	0.9130530444508276	0.0	1.7535245022112231	0.7592072797548857	0.0	1.8143933154282927	0.7235270563185977	0.0	1.8159335927540379	0.7319605142499067	0.0	1.7333013597025508	0.731467606125443	0.0	1.7565644278549777	1.3266058977877455	0.0	1.770732480217544	1.4452118558904619	0.0	1.802888977210951	1.3795627200893539	0.0	1.6952821657555888	1.2820858807671467	0.0	1.6759694789185604	1.163185329823566	0.0	1.6992447144472544	1.0565779273970008	0.0	1.804519803854323	1.2811502772771883	0.0	1.8087916733402356	1.1778212175439815	0.0	1.8329171412053165	1.1247373867886306	0.0
133	4.433333333333334	1.7684312949500753	1.0706593425465594	0.0	1.737151976480554	1.068131943391985	0.0	1.7730786358971407	0.9117670266204626	0.0	1.8069429752422992	0.752019094711553	0.0	1.8768847466396013	0.7248422624410714	0.0	1.8581722293180614	0.7166664411357853	0.0	1.799105205514923	0.7228091641716259	0.0	1.7964767389339278	1.0723186533777351	0.0	1.7733485568764253	0.9122370625698204	0.0	1.7502344180906502	0.757783592794157	0.0	1.8100808703950428	0.7226295023346238	0.0	1.8135073567211375	0.7285361755751972	0.0	1.7338121863861846	0.7290198017873283	0.0	1.7603225995590288	1.3271883812526621	0.0	1.7741993089291446	1.4455044394105858	0.0	1.807113071534349	1.3800153197257807	0.0	1.6992679703802933	1.2815473825901904	0.0	1.6783320469520349	1.1619510085988665	0.0	1.6987725205362525	1.0543742507651466	0.0	1.8055536968130466	1.2814778929266946	0.0	1.809086424536206	1.1779394894585418	0.0	1.8354127896023933	1.1230027313165238	0.0
134	4.466666666666667	1.771320477932057	1.0707127635628615	0.0	1.740629407969592	1.067989168061052	0.0	1.778559332380664	0.9107602715356131	0.0	1.8229986671973935	0.7527192543918538	0.0	1.8931842621999313	0.7311343562284452	0.0	1.8759642741382212	0.7223557047426559	0.0	1.8184447207067085	0.7236521438359623	0.0	1.7987615386214921	1.072135517073778	0.0	1.7711659460559401	0.9115747536818314	0.0	1.7477796843995652	0.7572584494024354	0.0	1.8051658861668887	0.7211392807908369	0.0	1.8090840390084229	0.7247603234817452	0.0	1.7338574472110972	0.7271249776386416	0.0	1.764131131924461	1.32816798136809	0.0	1.7784238943129986	1.445456885021214	0.0	1.8114973376021126	1.3804384731641626	0.0	1.7026588070633444	1.280752094890023	0.0	1.680626297960121	1.1601403531096655	0.0	1.69892560695339	1.0524568285664138	0.0	1.807370537793609	1.281725235367174	0.0	1.8116497505886358	1.1781606786142087	0.0	1.8385514280945598	1.1245229707750202	0.0
135	4.5	1.7743179050044282	1.0715369530480399	0.0	1.7455009715063434	1.0687191990154654	0.0	1.78525442005245	0.9094044000438848	0.0	1.8320397210957529	0.751188797026476	0.0	1.9025513405908951	0.732660992868642	0.0	1.887558898385824	0.7231115458388102	0.0	1.8293565121922122	0.7220981527815141	0.0	1.8009223461590498	1.0727116095906024	0.0	1.7689609564366446	0.9110308079855286	0.0	1.746962490031105	0.7571363502707263	0.0	1.802735441858586	0.7210117475924704	0.0	1.8059968755829225	0.723283969825481	0.0	1.7338154226368725	0.7264837676796793	0.0	1.767737204586931	1.3285487099823807	0.0	1.7834060247333596	1.4453136643689415	0.0	1.815452761469258	1.3807158233704904	0.0	1.7058779927393097	1.2799309487461497	0.0	1.6835989722410105	1.158993605336943	0.0	1.7002741526647833	1.0510039133014135	0.0	1.8095227335715764	1.2815805049139986	0.0	1.8154063315901008	1.1786916400982586	0.0	1.8439550501432347	1.1306256994301955	0.0
136	4.533333333333333	1.7775641283689905	1.0720783300323533	0.0	1.7514903126615846	1.0695920081449635	0.0	1.7924769474337743	0.9087091435610252	0.0	1.8358259932620493	0.7485829332678555	0.0	1.9084209667642378	0.730233052684313	0.0	1.8950005017856142	0.72030645798703	0.0	1.8331116263180574	0.719429322284742	0.0	1.8022966472416604	1.0730870067122464	0.0	1.7680017966157127	0.9104280852620246	0.0	1.747212857690284	0.756978186456844	0.0	1.8034333344782962	0.7218064744515281	0.0	1.8056463687165036	0.7237169702406716	0.0	1.7340182202401453	0.7271646634620798	0.0	1.7710412244374654	1.3283653779850961	0.0	1.788344618042268	1.4453563686996065	0.0	1.8188789539659995	1.3807955071198477	0.0	1.7099304658321046	1.2796684408494043	0.0	1.6873253123566023	1.1591736508537336	0.0	1.7033582881624278	1.0494195231744983	0.0	1.8109107247251173	1.2818454012782072	0.0	1.8174387792441093	1.1795843291082526	0.0	1.8496050730635132	1.1372179319673676	0.0
137	4.566666666666666	1.7813121212789906	1.072152360531661	0.0	1.7577169353932716	1.070734066626542	0.0	1.7987212656640292	0.9089926838211548	0.0	1.8373020016591444	0.7471165878413473	0.0	1.9127212887473393	0.7266212102137907	0.0	1.8994903949954554	0.7170148388594753	0.0	1.8334308408392443	0.7184404202163363	0.0	1.8030935696305377	1.0731673290601484	0.0	1.7691954477235368	0.9102588720217205	0.0	1.7476752632493266	0.7574955833565464	0.0	1.805333166191593	0.7226835750101126	0.0	1.8066646910832018	0.7248428150428299	0.0	1.733683830313228	0.7288749544439529	0.0	1.7741608421152837	1.3284872762227327	0.0	1.792597220030125	1.446252308347502	0.0	1.822171655442882	1.3807756961700153	0.0	1.7151395919302797	1.2804003398722055	0.0	1.6916029319033985	1.1601316843100427	0.0	1.7079311487652074	1.0476261846516128	0.0	1.8112900284273576	1.2836742529491192	0.0	1.8169605911996676	1.1807492441250838	0.0	1.8527754688646239	1.1378845525778185	0.0
